<svg width="32" height="32" viewBox="0 0 32 32" fill="none" xmlns="http://www.w3.org/2000/svg">
<path d="M24 22.4V9.6C24 8.71632 23.2837 8 22.4 8H22.3195C21.8952 8 21.4883 8.16872 21.1883 8.46872L8.46872 21.1883C8.16872 21.4883 8 21.8952 8 22.3195V32H0V22.3195C1.7225e-05 19.7734 1.01138 17.3316 2.81172 15.5313L15.5313 2.81172C17.3316 1.01138 19.7734 1.70984e-05 22.3195 0H22.4C27.7019 0 32 4.29806 32 9.6V22.4C32 27.7019 27.7019 32 22.4 32H11.2V24H22.4C23.2837 24 24 23.2837 24 22.4ZM0 0H13.6L5.6 8H0V0Z" fill="#2A9DF4"/>
</svg>
